<svg xmlns="http://www.w3.org/2000/svg" width="1536" height="1024"><path fill="#090a0a" d="M1098.438 237.938c3.212 4.24 3.205 8.962 2.562 14.062-2.356 8.227-5.962 15.15-11 22l-2.219 3.172c-5.962 8.517-12.29 16.71-18.781 24.828l-2.195 2.902L1065 307h-2l-.75 1.688c-1.48 2.736-3.185 4.989-5.25 7.312h-2l-.623 1.608c-1.95 3.388-4.656 5.935-7.416 8.662l-1.817 1.815q-1.905 1.902-3.818 3.795a1703 1703 0 0 0-5.767 5.747c-6.017 6-12.051 11.901-18.559 17.373a1550 1550 0 0 0-3.605 3.14c-11.129 9.669-22.247 19.302-33.903 28.333-2.273 1.764-4.455 3.49-6.492 5.527a216 216 0 0 1-4.75 3c-6.418 4.04-12.563 8.409-18.692 12.87q-2.036 1.473-4.085 2.927l-2.098 1.515-1.727 1.239c-5.19 4.563-8.061 10.606-11.21 16.637l-1.46 2.712c-4.063 7.742-7.425 15.527-7.353 24.413l-.023 2.925c.47 3.262 1.44 5.126 3.398 7.762 7.313 4.22 14.934 2.872 23 2l1-5 3 1-1 3c30.728-6.442 58.706-23.006 82.188-43.543a238 238 0 0 1 7.937-6.644l2.07-1.668C1045 416 1045 416 1048 416v2h-2l-.687 2.188c-1.56 3.34-3.722 5.221-6.313 7.812-.861 2.173-.861 2.173-1 4l-2.238.266c-3.31.88-4.538 2.077-6.95 4.484-11.01 10.289-23.81 18.793-36.917 26.18q-1.935 1.093-3.856 2.21c-15.226 8.82-31.275 15.008-48.887 16.57-3.047.197-3.047.197-5.523.892L932 483l-1-1c-2.162-.44-4.33-.851-6.5-1.25-10.175-2.159-17.672-5.874-23.5-14.75-4.449-8.288-2.794-17.165-1-26a219 219 0 0 1 2-5v-3l-1.738 1.547C886.978 444.916 871.83 453.685 856 461l-3.473 1.645c-24.726 11.213-52.736 15.653-79.496 10.5-3.626-1.37-5.497-3.257-8.031-6.145-9.572 14.383-17.906 29.45-26.324 44.527-27.445 49.128-27.445 49.128-40.926 53.536-3.472-.08-5.058-.894-7.75-3.063-1.437-1.687-1.437-1.687-2-4 1.817-11.309 7.785-21.91 13.063-31.937l1.7-3.253a683 683 0 0 1 20.21-35.72 241 241 0 0 0 5.89-10.363c3.557-6.583 7.43-12.967 11.324-19.352l1.121-1.843c6.057-9.957 12.262-19.81 18.692-29.532l-3-1-1 3c-1.426 1.473-1.426 1.473-3.312 3.063l-2.215 1.87L748 435l-2.566 2.223c-16.925 14.476-34.99 26.499-55.496 35.277l-2.307.99c-8.12 3.34-15.855 4.887-24.631 4.822l-2.382-.012c-8.426-.165-14.92-1.972-21.618-7.3-8.158-8.727-9.204-16.538-9-28l-3 1v2l-1.617.848c-4.147 2.231-8.07 4.574-11.883 7.34-4.292 3.042-8.677 5.859-13.187 8.562l-2.148 1.296a99 99 0 0 1-12.954 6.372c-14.107 5.808-20.835 11.395-27.798 24.932-2.523 4.731-5.452 9.205-8.35 13.712l-1.782 2.801c-13.203 20.65-28.27 40.45-45.804 57.625-1.63 1.61-1.63 1.61-3.414 4.012-2.371 2.874-4.99 5.155-7.82 7.566-2.304 1.986-4.517 4.05-6.743 6.121-11.785 10.58-24.657 19.181-38.5 26.813-1.06.598-2.12 1.196-3.21 1.813-14.711 7.887-33.21 12.127-49.54 7.562-8.887-3.051-14.058-6.92-18.34-15.324-3.413-7.69-2.702-16.643-.012-24.489 3.927-9.134 9.559-17.127 16.102-24.562l2.027-2.316C403.647 544.288 418.4 534.524 433 526l3.316-2.09c10.195-6.41 20.928-11.547 31.849-16.597 2.585-1.197 5.161-2.41 7.737-3.625 13.327-6.216 27.049-11.355 40.825-16.47a1102 1102 0 0 0 8.613-3.25l2.28-.868 5.704-2.174C536 480 536 480 538 480l.563-2.375c1.613-4.069 3.769-7.075 6.32-10.605 7.233-10.316 13.544-21.313 19.99-32.13q2.933-4.918 5.877-9.827l1.137-1.897A661 661 0 0 1 580 410l-1.875 2C576 414 576 414 574 414v2a116 116 0 0 1-6 4.875l-1.9 1.467c-2.028 1.56-4.064 3.109-6.1 4.658l-1.992 1.529c-26.086 20.018-54.46 37.17-84.041 51.516q-1.942.943-3.88 1.898C456.372 488.7 442.208 494.363 428 500l-3.691 1.467q-5.368 2.124-10.747 4.22l-3.337 1.316-3.096 1.196-2.717 1.058C402 510 402 510 398 510l-1 2c-2.215.484-2.215.484-4.937.75l-2.715.297C387 513 387 513 385 511c5.502-2.876 5.502-2.876 7.937-3.482 2.256-.566 4.207-1.398 6.32-2.366l2.395-1.084 4.97-2.273 2.386-1.08 2.176-.996C413 499 413 499 415 499l1-3 2.547-.306c3.846-.773 7.163-2.15 10.695-3.792l2.08-.947q2.177-.995 4.35-2c2.159-.997 4.32-1.984 6.484-2.969 13.267-6.065 26.305-12.577 39.219-19.361l2.477-1.285 2.359-1.238 2.072-1.084c1.887-1.023 1.887-1.023 3.717-3.018a254 254 0 0 1 6.188-3c7.335-3.569 13.936-7.903 20.641-12.525 2.389-1.623 4.804-3.2 7.226-4.772 10.574-6.887 20.583-14.104 30.218-22.253a289 289 0 0 1 4.946-4.052c3.953-3.177 7.81-6.316 11.343-9.96L575 401h2l.625-2.187c1.442-2.95 3.033-4.446 5.645-6.407 3.654-2.97 6.802-6.476 10-9.922q1.77-1.868 3.543-3.734l1.751-1.93c3.017-3.132 5.22-5.16 9.616-5.78 4.662-.049 7.457.333 11.82 1.96 2.063 2.313 2.063 2.313 3 5-.466 3.89-1.789 6.903-3.59 10.36l-1.611 3.103-1.736 3.287-1.788 3.408a471 471 0 0 1-12.685 22.483c-3.108 5.189-6.063 10.462-9.028 15.734A2416 2416 0 0 1 575 467c19.63-9.936 37.893-21.121 55-35l1.936-1.569c3.179-2.64 5.812-5.025 7.939-8.618 2.996-4.766 6.468-9.017 10.074-13.333A142 142 0 0 0 655 402l-1-2 2.621-.68c3.864-1.51 6.436-3.689 9.442-6.445C679.335 381.246 696.086 371.416 714 370c.788-.07 1.575-.14 2.387-.21 7.004-.319 13.533 1.375 19.55 4.96 3.151 3.437 4.911 6.729 5.196 11.457-.342 5.906-2.27 9.365-6.133 13.793h-2v2c-8.77 4.194-8.77 4.194-13.562 3.438C717 404 717 404 716 401c.96-2.2.96-2.2 2.375-4.687 2.426-4.616 3.532-8.096 3.625-13.313l-2-2h2v-2c-19.725 2.482-33.96 18.3-46 33-2.842 3.896-5.448 7.909-8 12l-1.08 1.71c-6.184 9.866-11.688 20.448-9.295 32.415 1.177 2.988 1.177 2.988 3.688 4.75 14.165 4.322 29.837-.847 42.541-7.395 18.002-9.743 34.109-22.37 48.892-36.437a162 162 0 0 1 6.852-6.117c5.17-4.393 9.751-9.318 14.34-14.301l1.597-1.727c2.773-3.012 5.478-6.056 8.09-9.21L786 385h2v-2c4.56-4.942 10.086-8.454 15.898-11.738 2.217-1.216 2.217-1.216 4.102-3.262 2.129.137 2.129.137 4.563.688l2.44.511L817 370c1 3 1 3 .137 5.172-3.413 6.072-7.111 11.862-11.02 17.619-3.74 5.546-7.235 11.225-10.68 16.959l-1.59 2.636-1.476 2.473-1.315 2.203c-1.192 2.052-1.192 2.052-2.056 4.938l1.04-1.258c12.128-14.28 25.789-26.432 41.308-36.894 2.658-1.737 2.658-1.737 4.652-3.848 22.717-12.214 22.717-12.214 33.691-10.605 2.249.692 4.223 1.526 6.309 2.605l2.813 1.25c4.575 3.66 6.342 8.05 7.25 13.688.948 17.775-11.047 34.459-22.325 47.074A1134 1134 0 0 1 861 437l-2.395 2.645C851.026 447.625 842.13 453.914 833 460h5l1-2c1.758-.605 1.758-.605 4.125-1.187C861.415 451.59 878.35 440.866 893 429q2.403-1.849 4.813-3.687A182 182 0 0 0 902 422l1.729-1.265c6.871-5.401 10.816-12.502 15.146-19.923q1.146-1.925 2.297-3.85c3.607-5.957 3.607-5.957 6.868-12.104 1.113-2.154 2.467-3.949 3.96-5.858 3.084-4.09 6.15-8.192 9.156-12.34a538 538 0 0 1 23.318-29.83c2.103-2.522 4.156-5.083 6.213-7.642 4.056-4.97 8.362-9.676 12.72-14.38 5.91-5.953 5.91-5.953 10.593-12.808a76 76 0 0 0-1-5c3-1 3-1 6 0l1.617-1.633c2.458-2.48 4.92-4.954 7.383-7.43l2.543-2.568c4.456-4.473 8.97-8.798 13.763-12.91 2.063-1.777 4.028-3.65 6.006-5.522 13.458-12.092 49.247-44.006 68.126-29m-47.688 32-1.701 1.647c-2.782 2.787-4.141 4.653-5.049 8.415-1.32.691-2.657 1.353-4 2a109 109 0 0 0-5.187 5.438l-1.465 1.623c-3.814 4.259-7.455 8.646-11.04 13.1a388 388 0 0 1-6.343 7.575c-5.002 5.845-9.776 11.82-14.43 17.944-2.657 3.494-5.376 6.938-8.097 10.382-8.557 10.86-16.728 22.006-24.91 33.149a1097 1097 0 0 1-6.837 9.203l-1.541 2.065a584 584 0 0 1-2.862 3.802c-2.098 2.82-3.827 5.176-4.288 8.719h-2c-1.645 2.463-1.645 2.463-3 5 16.763-7.928 34.094-22.725 47-36l-1-2h2l1-1h3a92 92 0 0 0 5.75-5.125l3.559-3.367 1.858-1.773a383 383 0 0 1 5.18-4.805c7.65-7.002 15.078-14.227 22.434-21.535q1.568-1.557 3.14-3.108c6.065-5.99 11.781-12.118 17.08-18.814 2.074-2.566 4.257-4.99 6.499-7.41 7.145-7.889 13.205-16.393 18.875-25.375l1.263-1.993c3.855-6.222 6.94-12.237 7.362-19.695-.806-2.372-.806-2.372-2-4-15.3-1.016-30.039 15.937-40.25 25.938M995 298v2l2-1zm-167 98-2.734 2.152C809.758 410.545 795.32 424.437 783 440a4086 4086 0 0 1-7.055 8.492c-2.807 3.619-5.103 6.96-5.945 11.508 4.035 4.017 4.035 4.017 9.375 5.313L782 465v1c19.49-.846 33.662-11.838 47-25l1.712-1.637c4.378-4.245 8.105-8.774 11.726-13.675l1.638-2.167c2.89-3.415 2.89-3.415 3.924-7.521h2a92 92 0 0 0 4.375-6.312l1.222-1.923c4.5-7.271 8.521-15.007 7.403-23.765l-2-2h-2v-2c-11.065-.972-22.975 9.52-31 16m-247 11 1 2Zm181 14v3Zm-241.59 72.309-1.976.733q-3.19 1.19-6.371 2.396l-2.192.825c-11.84 4.465-23.468 9.24-34.871 14.737l-2.12 1.014C447.55 525.192 424.417 539.609 404 559l-1.988 1.793c-10.385 9.669-19.271 23.462-20.262 37.832.376 5.07 1.263 8.202 4.563 12.125 6.825 5.714 15.266 4.854 23.687 4.25 18.847-2.538 37.255-16.65 50-30v-2h2c1.471-1.376 1.471-1.376 3-3.25l1.89-2.227L469 575l2.297-2.71c5.948-7.067 11.698-14.275 17.364-21.568q1.912-2.456 3.835-4.902c9.398-12.06 18.059-24.644 26.687-37.261 3.162-4.625 6.388-9.2 9.672-13.739 1.322-1.744 1.322-1.744 1.145-3.82-3.666 0-6.149 1.029-9.59 2.309"/><path fill="#0e0f0e" d="m1053.36 368.602 2.464.231c2.643.254 5.285.521 7.926.792l2.73.275c14.732 1.503 29.108 3.622 43.52 7.1l2.615.613c23.58 5.584 45.618 14.7 64.385 30.387l2.594 2.137c16.065 13.809 27.587 31.576 30.406 52.863 1.828 28.1-7.932 50.911-26 72-7.732 8.765-16.534 15.866-26.049 22.612a344 344 0 0 0-5.217 3.802C1125.461 581.064 1075.422 608 1041 608l-1 2c-1.914.457-1.914.457-4.625.813-7.513 1.115-14.878 2.803-22.276 4.51-4.78 1.076-9.162 1.995-14.099 1.677v3l-2.649-.542c-3.293-.45-5.711-.317-8.972.214l-3.281.51-3.535.568c-71.274 10.697-146.679 11.087-217.86-.886-3.951-.662-7.697-.99-11.703-.864v-2l-3.64-.312c-6.48-.728-12.769-2.205-19.11-3.688l-1.95-.453c-13.72-3.205-27.096-7.315-40.495-11.655a204 204 0 0 0-6.996-2.091C676 598 676 598 674 597a1489 1489 0 0 0-7-3.312l-2.047-.963c-4.438-2.068-8.898-3.96-13.512-5.608-3.698-1.692-7.02-3.926-10.441-6.117l-5.277-3.305-5.66-3.57-2.842-1.777C621.199 568.54 615.56 564.449 610 560l-2.969-2.23c-6.242-4.826-10.695-9.845-15.156-16.266-1.801-2.696-1.801-2.696-4.875-4.504h2l-2-3v-4l-2-1v-6l2-1v2l2 1 .813 2.063c2.552 6.314 6.202 11.308 11.187 15.937l1.515 1.583c4.072 4.25 8.26 7.6 13.235 10.73l2.204 1.402c11.66 7.298 23.736 13.881 36.773 18.347C657 576 657 576 658 578c1.66.364 3.329.69 5 1 3.63 1.255 7.222 2.599 10.82 3.941 3.096 1.217 3.096 1.217 6.18 1.059v2l2.34.305c4.857.922 9.495 2.386 14.222 3.82 34.354 10.135 69.313 16.71 104.938 20.313l2.467.254c11.04 1.116 21.939 1.507 33.033 1.308v2c51.42.5 102.69-1.482 153.529-9.696 2.516-.31 4.938-.357 7.471-.304l1-2c1.705-.289 1.705-.289 4.031-.402 7.638-.627 15.02-2.437 22.469-4.16l2.333-.537c29.01-6.705 57.23-16.163 84.167-28.901l2.404-1.127c31.752-15.006 65.448-36.426 79.639-70.123 3.985-11.452 5.52-22.746 4.145-34.75l-.252-2.598c-.233-2.144-.575-4.276-.936-6.402l-2-1c-.36-1.66-.69-3.329-1-5-2.554-6.374-6.072-11.732-10.45-16.992-1.55-2.008-1.55-2.008-2.507-4.14-1.336-2.392-2.592-2.704-5.043-3.868a168 168 0 0 1-4.875-4.562C1162.565 409.423 1146.09 396 1134 396v-2c-20.751-7.004-41.363-12.496-63-16l-1 2-3-1v-2l-1.95.035c-5.052.05-10.016-.076-15.05-.535-7.114-.571-14.18-.613-21.312-.562l-3.725.013q-4.482.018-8.963.049c1-3 1-3 2.574-3.914 6.042-2.033 11.836-2.578 18.192-2.875 3.084-.103 3.084-.103 5.414-.762 3.79-.604 7.387-.226 11.18.153"/><path fill="#e1e2e1" d="m890 653 9 1 6 17 1-7h2l.262-1.898c.423-2.465.9-4.745 1.738-7.102 2.579-1.764 3.947-2.05 7.023-1.902 1.977.902 1.977.902 3.243 3.625l.984 3.34 1.016 3.347L923 666c2.494-.588 2.494-.588 5-2 1.25-2.611 1.25-2.611 1.813-5.625l.707-3.04L931 653h9c.26 4.863-.617 8.555-2.187 13.148l-.673 1.993c-.705 2.08-1.422 4.157-2.14 6.234q-.724 2.127-1.445 4.254Q931.79 683.819 930 689h-10l-5-15-2 3 2 1-2 1v3h-2l-1 5 2 1c-2.882.96-4.699 1.106-7.687 1.063l-2.45-.028L900 689q-2.115-6.056-4.218-12.115-.716-2.06-1.434-4.118-1.034-2.966-2.063-5.935l-1.254-3.602c-2.395-7.502-2.395-7.502-1.031-10.23m35 13v5c2.185-2.676 2.185-2.676 2-5z"/><path fill="#101111" d="M1083 279c.627 1.806.627 1.806 1 4a66 66 0 0 1-4.937 6.625l-1.522 1.86a670 670 0 0 1-3.075 3.732c-2.713 3.3-5.294 6.708-7.907 10.088L1065 307h-2l-.75 1.688c-1.48 2.736-3.185 4.989-5.25 7.312h-2l-.623 1.608c-1.95 3.388-4.656 5.935-7.416 8.662l-1.817 1.815q-1.905 1.902-3.818 3.795a1703 1703 0 0 0-5.767 5.747c-6.017 6-12.051 11.901-18.559 17.373a1550 1550 0 0 0-3.605 3.14c-11.304 9.82-22.63 19.592-34.395 28.86l-2-3 3.906-4.395c1.376-1.694 1.376-1.694 1.094-4.605 2.494-2.256 5.068-4.286 7.734-6.328 1.472-1.164 2.875-2.413 4.266-3.672v-3h2v-2l3 1 2.824-2.64 1.846-1.725 4.104-3.837c3.073-2.872 6.147-5.74 9.273-8.556 7.05-6.383 13.852-13.008 20.598-19.71q1.578-1.57 3.162-3.131c6.108-6.034 11.843-12.163 17.18-18.908 2.142-2.652 4.395-5.17 6.7-7.68 2.743-2.991 5.227-5.997 7.563-9.313 2.214-3.068 3.942-4.604 7.75-5.5l1 2z"/><path fill="#e1e1e0" d="M656 652c3.783 1.296 6.111 2.747 8.875 5.625l2.059 2.137a325 325 0 0 1 7.718 8.672A47 47 0 0 0 677 671l1-17c2-1 2-1 10 0v35c-9 0-9 0-11.191-1.46l-1.371-1.915-1.442-1.898C673 682 673 682 673 680h-2c-5-5.476-5-5.476-5-8h-2l-2-2-.148 3.867-.227 5.008-.094 2.55-.117 2.442-.095 2.254C661 688 661 688 659 690l-7-1v-35l2-1 2 1z"/><path fill="#dddedd" d="m780 657 3-1-2 6h-2l-2 4-2.062-.875c-6.389-2.447-10.356-3.835-16.938-1.125-2.668 4.002-2.715 7.294-2 12 1.876 2.502 3.239 3.62 6 5 2.184-.06 2.184-.06 4.563-.375l2.44-.273c1.99-.154 1.99-.154 2.997-1.352l-7-2c-.125-3.375-.125-3.375 0-7 2-2 2-2 5.223-2.047l3.84.297 3.847.266L781 669c1.852 3.703 1.987 7.903 2 12-1.637 4.275-3.935 6.017-8 8-7.632 2.322-15.006 1.583-22.125-1.832-1.95-1.215-3.398-2.41-4.875-4.168v-2l-2-1c-1.907-5.66-1.86-11.786.563-17.25 2.549-4.545 6.324-7.73 11.296-9.36 8.476-1.546 14.737-.563 22.141 3.61"/><path fill="#0c0c0b" d="M869.438 654.625c4.287 2.501 7.333 5.917 9.562 10.375.502 6.446.962 12.585-3 18-5.21 5.095-9.682 7.034-16.875 7.375-5.86-.141-10.302-1.817-14.66-5.766-4.274-4.735-5.71-9.221-5.528-15.484.75-5.922 3.653-9.294 8.063-13.125 6.207-4.62 15.497-4.523 22.438-1.375M852 664l-1.875 1.188c-1.908 3.073-1.625 6.355-1.125 9.812 1.265 2.91 2.255 4.46 4.813 6.313 4.42 1.389 7.253 1.136 11.437-.875 3.423-3.035 4.129-4.934 4.75-9.438-.798-3.774-1.695-6.835-5-9-5.394-1.425-8.307-.986-13 2"/><path fill="#eeeeed" d="m615.68 652.867 3.504-.004 3.691.012 3.668-.012 6.746.008C636 653 636 653 639 654l-2 8-18 1v3h15c1 5 1 5 1 9h-16v6h18c2 6 2 6 2 9l-2-1a84 84 0 0 0-5.05.191l-3.057.174q-3.188.196-6.375.406l-3.069.17c-.924.06-1.85.118-2.802.178-2.933-.132-5-.888-7.647-2.119q-.037-7.236-.055-14.471-.008-2.464-.02-4.927c-.013-2.356-.018-4.711-.023-7.067l-.015-2.238c0-1.766.051-3.532.113-5.297 1.765-1.765 4.29-1.13 6.68-1.133"/><path fill="#0a0a09" d="M823 657c2.45 3.983 3.146 6.042 2.438 10.688-1.424 3.28-2.715 5.043-5.438 7.312 1.356 4.067 3.397 7.087 5.977 10.45C827 687 827 687 827 689c-3.451.491-6.566.679-10 0-2.024-1.786-3.257-3.555-4.648-5.86-1.557-2.639-1.557-2.639-5.352-6.14v12c-6.934.879-6.934.879-9 1-1-1-1-1-1.114-4.326q0-2.214.016-4.428l.005-2.35c.005-2.486.018-4.972.03-7.458q.008-2.523.014-5.045.017-6.197.049-12.393 2.6-.263 5.2-.516l2.924-.29c6.375-.43 12.552.003 17.876 3.806m-16 5-1 6c2.547 1.274 3.428.802 6.125.063l2.195-.59L816 667l-1-5z"/><path fill="#090a09" d="M636 315c6.304-.45 10.714.388 16 4 1.777 3.554 1.616 7.127 1 11-3.359 7.705-9.983 13.74-17.594 17.168-3.061 1.059-5.18 1.227-8.406.832-3.899-2.183-6.966-4.733-10-8q.973-1.946 1.953-3.887a130 130 0 0 0 1.906-4.008c2.875-6.19 6.052-11.79 12.516-14.543L636 317z"/><path fill="#e6e7e6" d="M1027 654v35h-9v-14h-16v14c-6.152.098-6.152.098-8 0-1-1-1-1-1.114-4.235q0-2.15.016-4.3l.005-2.283c.005-2.415.018-4.83.03-7.245q.008-2.45.014-4.9.017-6.018.049-12.037h9v12h16l-.437-4.875-.247-2.742c-.186-2.394-.186-2.394-1.316-4.383 3-1 3-1 11 0"/><path fill="#d8d9d8" d="M519.559 653.758c3.923 1.828 5.712 3.187 7.441 7.242l-5 5-2.375-1.5c-4.684-1.938-8.624-2.356-13.625-1.5-3.378 1.71-3.378 1.71-5 5-.394 4.164-.051 7.706 2.625 11 5.224 2.2 9.901 2.202 15.375 1v-2c3.796.542 5.472 2.201 8 5-2.259 3.433-3.594 4.848-7.5 6.313-3.5.687-3.5.687-7.5.687v2l-3 1-3-2q-2.155-1.096-4.312-2.187C496.226 685.81 492 682 490 676c-.398-5.967.32-9.535 3-15l.875-2.875L495 656c2.375-.687 2.375-.687 5-1l1.773-.996c5.25-2.367 12.353-1.855 17.786-.246"/><path fill="#dbdcda" d="m706.832 652.867 3.42-.004 3.56.012 3.526-.012c5.656.007 11.093.113 16.662 1.137v2l2 1c-1.125 2.438-1.125 2.438-3 5-2.937.75-2.937.75-6 1l-4 1-1 25c-3.069 1.534-5.7.55-9 0-.81-5.669-1.155-11.152-1.125-16.875l-.012-2.297c.01-5.574.01-5.574 1.137-7.828h-13v-7l-3 1v-2c3.33-1.001 6.363-1.129 9.832-1.133"/><path fill="#d8d8d7" d="M981 652c2.567 3.85 1.833 5.586 1 10h-12l.035 5.652.028 7.285.025 3.733.01 3.545.016 3.285C970 688 970 688 969 689c-2.67.141-5.324.042-8 0-.889-6.048-1.123-11.892-1.062-18l.013-2.637q.02-3.18.049-6.363-2.188.212-4.375.438c-.812.08-1.624.162-2.46.246-2.208.207-2.208.207-4.165 1.316-1-6.625-1-6.625-1-10q4.688-.255 9.375-.5l2.637-.145c5.305-.275 10.569-.382 15.881-.275 2.3.011 2.3.011 5.107-1.08"/><path fill="#0b0c0b" d="M892 656h5l8 23 8-23h4q1.759 5.404 3.5 10.813l1.012 3.103.957 2.979.888 2.745C924 678 924 678 924 681h2l.309-2.91c.671-4.702 2.2-9.055 3.754-13.528l.853-2.505q1.036-3.031 2.084-6.057h5l-10 30-5 1c-3.454-7.11-5.797-14.42-8-22l-.627 1.912q-1.402 4.264-2.81 8.525l-.987 3.01-.947 2.862-.873 2.65C908 686 908 686 907 687c-1.666.04-3.334.043-5 0a6854 6854 0 0 1-4.272-12.28q-.726-2.09-1.456-4.179-1.045-3-2.085-6.002l-1.269-3.65C892 658 892 658 892 656"/><path fill="#f6f7f6" d="M549 653c2.566 2.566 1.882 8.603 2 12-.141 5.348-.59 10.665-1 16l17-1c1 3 1 3 0 9h-26v-35c2.945-.982 4.935-1.161 8-1"/><path fill="#2d2e2e" d="M654 656c6 0 6 0 7.695 1.293l1.43 1.894c3.743 4.696 7.768 9.045 11.875 13.42 3.895 4.183 3.895 4.183 5 6.393l1-23h4v31c-4 0-4 0-5.57-1.363l-1.555-1.95a251 251 0 0 0-9.062-10.375c-3.091-3.363-5.951-6.735-8.813-10.312l-1 24h-5z"/><path fill="#ebebeb" d="M823 657c2.45 3.983 3.146 6.042 2.438 10.688-1.424 3.28-2.715 5.043-5.438 7.312 1.356 4.067 3.397 7.087 5.977 10.45C827 687 827 687 827 689c-3.451.491-6.566.679-10 0-2.024-1.786-3.257-3.555-4.648-5.86-1.557-2.639-1.557-2.639-5.352-6.14v12c-6.934.879-6.934.879-9 1-1-1-1-1-1.114-4.326q0-2.214.016-4.428l.005-2.35c.005-2.486.018-4.972.03-7.458q.008-2.523.014-5.045.017-6.197.049-12.393 2.6-.263 5.2-.516l2.924-.29c6.375-.43 12.552.003 17.876 3.806m-23-1v31h4v-13c4.181.512 6.168.954 8.848 4.324a146 146 0 0 1 3.379 5.461c1.615 2.448 1.615 2.448 4.484 3.024L823 687c-1.54-3.498-3.686-6.382-5.977-9.414C816 676 816 676 816 674a375 375 0 0 1 6-4c1.427-2.853 1.31-4.835 1-8-2.15-3.338-3.204-4.735-7-6-2.74-.07-5.448-.093-8.187-.062z"/><path fill="#141515" d="m449 483 2 1-3 2c-1.3 1.934-1.3 1.934-2 4l1 2a984 984 0 0 1-32.937 13.5l-3.428 1.35-3.225 1.244-2.87 1.115C402 510 402 510 398 510l-1 2c-2.215.484-2.215.484-4.937.75l-2.715.297C387 513 387 513 385 511c5.502-2.876 5.502-2.876 7.937-3.482 2.256-.566 4.207-1.398 6.32-2.366l2.395-1.084 4.97-2.273 2.386-1.08 2.176-.996C413 499 413 499 415 499l1-3 2.599-.328c3.613-.714 6.485-1.882 9.823-3.43l3.605-1.644q2.81-1.298 5.616-2.601c1.82-.842 3.643-1.673 5.466-2.505l3.28-1.52z"/><path fill="#0d0e0d" d="m778 659-1 3c-4.75-.875-4.75-.875-7-2-4.237-.433-7.914-.449-11.875 1.188-2.999 2.557-4.819 4.743-5.41 8.738-.194 4.483.346 7.505 3.285 11.074 3.059 1.902 5.423 2.272 9 2.25l2.563.016c2.634-.287 4.248-.777 6.437-2.266.816-3.06.816-3.06 1-6h-8v-3h12c.586 8.203.586 8.203 0 11-4.304 3.922-7.783 4.546-13.5 4.5l-3.844.031c-5.227-.76-9.293-3.46-12.656-7.531-1.934-5.8-1.994-11.898.625-17.437 8.702-9.39 17.551-9.06 28.375-3.563"/><path fill="#ebebeb" d="m583 653 9 1v35h-9z"/><path fill="#040505" d="M996 656h4v13h21v-13h4v31h-4v-15h-21v15h-4z"/><path fill="#0b0b0b" d="M612 656h23v3h-19v10h16v4h-16v11h19v3h-23z"/><path fill="#d9d9d8" d="M869.438 654.625c4.287 2.501 7.333 5.917 9.562 10.375.502 6.446.962 12.585-3 18-5.21 5.095-9.682 7.034-16.875 7.375-5.86-.141-10.302-1.817-14.66-5.766-4.274-4.735-5.71-9.221-5.528-15.484.75-5.922 3.653-9.294 8.063-13.125 6.207-4.62 15.497-4.523 22.438-1.375m-26.375 8.563c-1.902 5.033-2.14 10.077-.149 15.132 2.565 4.484 4.995 7.225 10.086 8.68 5.93.598 11.108.896 16.563-1.687 4.404-4.18 7.144-7.322 7.75-13.5-.51-6.227-2.467-10.207-7.188-14.313-10.018-4.835-20.064-2.214-27.062 5.688"/><path fill="#0a0a0a" d="m510.875 655.75 3.68-.078c3.652.348 5.504 1.203 8.445 3.328l-1 4-2.375-1.5c-4.69-1.941-8.613-2.232-13.625-1.5-3.521 1.698-5.343 2.971-7.437 6.25-.777 3.794-.747 7.042.437 10.75 2.193 2.642 3.933 4.467 7 6 5.68.44 10.687.237 16-2v4c-5.419 3.34-11.886 2.663-18 2-4.558-1.602-7.18-3.873-10-7.75-1.69-5.49-1.756-10.14.188-15.562 4.435-6.578 9.066-7.841 16.687-7.938"/><path fill="#c8c8c7" d="M1019 653c3.283 4.925 2.115 10.177 2 16h-21v-13h-4v31l5-1v2h-8v-34h9v12h16l-.437-4.875-.247-2.742c-.186-2.394-.186-2.394-1.316-4.383z"/><path fill="#dcdcdc" d="M931 653h9c.26 4.863-.617 8.555-2.187 13.148l-.673 1.993c-.705 2.08-1.422 4.157-2.14 6.234q-.724 2.127-1.445 4.254Q931.79 683.819 930 689l-3-1c2.08-7.094 4.33-14.118 6.688-21.125l.97-2.898q1.17-3.49 2.342-6.977l-4-1-.516 2.168C930.61 665.876 928.402 673.44 926 681h-2c-1.807-5.723-2.521-9.27 0-15l1.977-.844c2.284-1.028 2.284-1.028 3.07-3.758l.703-3.023.734-3.04zm-6 13v5c2.185-2.676 2.185-2.676 2-5z"/><path fill="#040505" d="M543 656h5v28h16v3h-21z"/><path fill="#181818" d="M1048 416v2h-2l-.687 2.188c-1.56 3.34-3.722 5.221-6.313 7.812-.861 2.173-.861 2.173-1 4l-2.187.23c-3.537.968-5.172 2.561-7.813 5.082-6.972 6.592-6.972 6.592-10 8.688l-3-1v-3l-2-1 2.535-1.73c8.84-6.127 16.972-12.822 24.97-20.008 2.633-2.222 3.989-3.262 7.495-3.262"/><path fill="#030303" d="M951 656h29v3h-13v28h-4v-28h-12z"/><path fill="#020201" d="M703 656h28v3h-12v28h-4v-28h-12z"/><path fill="#ebebeb" d="M864 659c3.148 1.3 4.617 2.551 6.813 5.125 1.67 4.043 1.87 7.563 1.187 11.875-1.699 3.46-2.962 5.366-6.25 7.375-4.833 1.098-8.972 1.415-13.562-.625-3.088-2.47-4.962-4.386-5.622-8.371-.01-7.602-.01-7.602 2.184-11.442 4.815-4.145 9.058-4.646 15.25-3.937m-12 5-1.875 1.188c-1.908 3.073-1.625 6.355-1.125 9.812 1.265 2.91 2.255 4.46 4.813 6.313 4.42 1.389 7.253 1.136 11.437-.875 3.423-3.035 4.129-4.934 4.75-9.438-.798-3.774-1.695-6.835-5-9-5.394-1.425-8.307-.986-13 2"/><path fill="#060605" d="M681 656h4v31c-4 0-4 0-5.816-1.61l-1.746-2.14c-.58-.696-1.158-1.392-1.754-2.11L674 679l-1.715-2.078C671 675 671 675 671 672c1.688.125 1.688.125 4 1l5 6z"/><path fill="#e6e6e5" d="M770 659c1.773 1.523 1.773 1.523 3 3l-1.758-.07c-4.807-.111-8.79.006-13.242 2.07-2.668 4.002-2.715 7.294-2 12 1.876 2.502 3.239 3.62 6 5 2.184-.06 2.184-.06 4.563-.375l2.44-.273c1.99-.154 1.99-.154 2.997-1.352l-6-1v-6l1 3h8c.313 2.813.313 2.813 0 6-2.955 2.955-5.92 3.25-9.937 3.438-4.72-.148-7.483-1.216-11.063-4.438-2.348-2.989-2.421-6.222-2.316-9.973.683-4.381 3.244-7.109 6.504-9.902 3.873-1.55 7.695-1.911 11.812-1.125"/><path fill="#070807" d="M767 672h12c.586 8.203.586 8.203 0 11-4.304 3.922-7.783 4.546-13.5 4.5l-3.844.031c-4.197-.61-6.38-1.887-9.656-4.531l-1-2 1-3c2 0 2 0 4 1.938l2 2.062c2.45 1.225 4.142 1.167 6.875 1.188l2.617.042c2.69-.247 4.283-.704 6.508-2.23.816-3.06.816-3.06 1-6h-8z"/><path fill="#d4d4d3" d="m615.68 652.867 3.504-.004 3.691.012 3.668-.012 6.746.008C636 653 636 653 639 654l-2 8h-19v-1l2.957-.184 3.856-.254c1.264-.08 2.529-.162 3.832-.246 3.347-.188 3.347-.188 6.355-1.316v-3h-23v31l-3 1q-.037-7.236-.055-14.471-.008-2.464-.02-4.927c-.013-2.356-.018-4.711-.023-7.067l-.015-2.238c0-1.766.051-3.532.113-5.297 1.765-1.765 4.29-1.13 6.68-1.133"/><path fill="#191a1a" d="m416 496 4 1-.625 1.875L419 501l2 2c-3.08 1.177-6.164 2.34-9.25 3.5l-2.645 1.012-2.558.957-2.349.888C402 510 402 510 398 510l-1 2c-2.215.484-2.215.484-4.937.75l-2.715.297C387 513 387 513 385 511c5.502-2.876 5.502-2.876 7.937-3.482 2.256-.566 4.207-1.398 6.32-2.366l2.395-1.084 4.97-2.273 2.386-1.08 2.176-.996C413 499 413 499 415 499z"/><path fill="#2f2f2f" d="M585 656h5v31h-5z"/><path fill="#e4e5e4" d="M981 652c2.148 3.222 2.294 4.278 2 8-1 1-1 1-3.941 1.098l-3.621-.035-3.63-.028L969 661v12l-2 1v-15h13v-3h-29l-1 3v-3h-2v-2q4.688-.255 9.375-.5l2.637-.145c5.305-.275 10.569-.382 15.881-.275 2.3.011 2.3.011 5.107-1.08"/><path fill="#e7e7e6" d="M766 668q3.719.171 7.438.375c.707.03 1.414.062 2.142.094 1.812.104 3.618.31 5.42.531 1.852 3.703 1.987 7.903 2 12-1.637 4.275-3.935 6.017-8 8-3.292 1.05-6.307 1.103-9.75 1.063l-2.984-.028L760 690l1-3 2.45-.113 3.237-.2 3.2-.175c3.469-.57 5.419-1.247 8.113-3.512.817-2.717.817-2.717.813-5.687L779 672h-13v5h-1c-.125-6.75-.125-6.75 1-9"/><path fill="#030303" d="M800 656h10l-1 3h-5l.254 2.824c.682 8.533.682 16.636-.254 25.176h-4z"/><path fill="#e6e6e6" d="M513 659v2h-7v2l-2.562 2.063c-2.654 3.197-2.805 3.659-2.5 7.562.51 2.818.863 4.13 2.687 6.375 5.224 2.2 9.901 2.202 15.375 1v-2c1.938.313 1.938.313 4 1l1 3-2.875.438c-3.018.391-3.018.391-5.125 1.562-4.95.543-8.895.522-13.437-1.625-3.32-3.076-5.437-5.692-5.657-10.363.357-4.74 1.61-7.627 5.094-11.012 3.475-2.517 6.82-2.16 11-2"/><path fill="#dcdcdb" d="M656 652c3.783 1.296 6.111 2.747 8.875 5.625l2.059 2.137a325 325 0 0 1 7.718 8.672A47 47 0 0 0 677 671l1-17 2-1-1 11h2v16a731 731 0 0 1-13.312-13.687l-2.245-2.338-2.119-2.237-1.935-2.03C660 658 660 658 660 656l-3-1z"/><path fill="#e4e5e3" d="M610 656h1v31h24v-3h-2v-2h-15v-7h1v6h18c2 6 2 6 2 9l-2-1a85 85 0 0 0-5.086.156l-3.07.16-6.414.368-3.078.16-2.818.162C614 690 614 690 610 689z"/><path fill="#eaeae9" d="M653 653q2.514.428 5 1l-1 2h-3v31h5v-25l2 1-1 27-8-1q-.037-7.449-.055-14.899-.008-2.535-.02-5.072c-.013-2.425-.018-4.85-.023-7.275l-.015-2.304c0-1.817.051-3.634.113-5.45z"/><path fill="#d6d6d5" d="M541 654h1v34l21-1 1-3h-16l2-3a83 83 0 0 1 8.625-.687l2.43-.104c1.981-.083 3.963-.147 5.945-.209 1 3 1 3 0 9h-26z"/><path fill="#c7c7c6" d="m993 654 3 1v32l5-1v2h-8z"/><path fill="#e3e3e2" d="M804 659c10.18-.485 10.18-.485 13.75 1.625 1.25 2.375 1.25 2.375 1.188 5.5C818 669 818 669 815 671c-3.684.267-7.301.087-11 0zm3 3-1 6c2.547 1.274 3.428.802 6.125.063l2.195-.59L816 667l-1-5z"/><path fill="#181818" d="m586 522 1 2 2 1 .813 2.063c1.6 3.958 3.89 7.353 6.187 10.937a761 761 0 0 1 3 5h-2l-1 4-1.207-1.68-1.606-2.195-1.582-2.18c-1.638-2.175-1.638-2.175-4.605-3.945h2l-2-3v-4l-2-1c-.043-2-.04-4 0-6z"/><path fill="#dddddc" d="M661 665c3.29 1.097 3.968 1.848 6.125 4.438 3.591 4.243 7.306 8.356 11.055 12.46C680 684 680 684 681 686l-2 3a483 483 0 0 1-3-3.375l-1.687-1.898C673 682 673 682 673 680h-2c-5-5.476-5-5.476-5-8h-2l-2-2-1 18h-1a3037 3037 0 0 1-.062-10.937l-.026-3.155-.01-2.998-.016-2.777C660 666 660 666 661 665"/><path fill="#c9c9c7" d="m797 654 3 2c.267 2.483.349 4.715.293 7.195l-.013 2.144a720 720 0 0 1-.092 6.786 2552 2552 0 0 0-.042 4.598q-.051 5.64-.146 11.277h5l-.035-2.117-.028-2.758-.035-2.742C805 678 805 678 806 676l3 1h-2v12c-6.934.879-6.934.879-9 1-1-1-1-1-1.114-4.326q0-2.214.016-4.428l.005-2.35c.005-2.486.018-4.972.03-7.458q.008-2.523.014-5.045.017-6.197.049-12.393"/><path fill="#d7d6d6" d="M504 653c15.308-.84 15.308-.84 21 4 1.207 2.14 1.207 2.14 2 4l-5 5-2.375-1.437c-4.547-1.96-8.724-2.282-13.625-2.563v-1h7v-2c3.344.557 6.033 1.352 9 3v-3c-4.076-2.4-7.807-2.364-12.441-2.559-2.878-.496-3.776-1.19-5.559-3.441"/><path fill="#e5e5e4" d="M914 664c2 1 2 1 2.79 3.01l.76 2.611.87 2.834a633 633 0 0 1 1.75 5.953l.88 2.838.772 2.615c1.559 2.83 3.15 3.244 6.178 4.139v1h-8l-5-15-4 4c.514-4.97 1.234-9.29 3-14"/><path fill="#d1d1d0" d="M721 661h12v1l-2.75.438c-2.436.421-4.852.962-7.25 1.562l-1 25c-3.069 1.534-5.7.55-9 0-.652-4.724-1.12-9.22-1-14h2l1-2v14h6z"/><path fill="#2f302f" d="M543 656h1v30h4v-2h16v3h-21z"/><path fill="#f8f8f8" d="M732 656h1v5h-12v26h-2v-28h13z"/><path fill="#dededd" d="M867.395 653.684c4.751 2.19 7.55 5.116 10.605 9.316l-1 2h-2l-.562-1.75c-2.149-3.363-4.745-4.976-8.438-6.25-3.413-.419-6.77-.624-10.207-.727C853 656 853 656 851 654c4.677-2.339 11.474-1.721 16.395-.316"/><path fill="#e5e5e4" d="m853 656-5.176 3.418c-3.473 3.012-4.738 5.539-5.117 10.133l.106 3.761.082 3.801L843 680h-2c-2.411-5.39-2.66-10.372-1-16 3.342-5.105 6.608-9.918 13-8"/><path fill="#151716" d="m1045 317 3 1c-6.07 7.4-6.07 7.4-10 9.938-3.682 2.531-5.813 5.522-8.387 9.136C1028 339 1028 339 1025 340c.544-3.984 2.435-5.784 5.254-8.547l2.588-2.558 2.72-2.645 2.733-2.691A1572 1572 0 0 1 1045 317"/><path fill="#010202" d="M655 662h3v24l-3 1z"/><path fill="#080808" d="m1027.105 370.902 2.979.01 3.103.026 3.14.013q3.836.018 7.673.049l-1 3-25 1 1-3c3-1 4.974-1.116 8.105-1.098"/><path fill="#272828" d="M1048 416v2h-2l-.687 2.188c-1.56 3.34-3.722 5.221-6.313 7.812-.861 2.173-.861 2.173-1 4h-3v-4l-2-2c1.93-1.676 3.868-3.34 5.813-5l1.658-1.445C1044.66 416 1044.66 416 1048 416"/><path fill="#e9e9e8" d="M704 659h11q.079 3.437.125 6.875l.07 3.867C715 673 715 673 713 675c-1-1-1-1-1.133-3.18l.008-2.695-.008-2.68C712 664 712 664 713 661h-10z"/><path fill="#f5f6f5" d="M967 659h15v2h-13v12l-2 1z"/><path fill="#020202" d="M618 656c2.95-.22 5.684-.28 8.625-.187l2.43.04c1.982.036 3.963.09 5.945.147v3h-19z"/><path fill="#ececec" d="M864 659c4.19 1.73 6.137 3.882 8 8 .188 2.813.188 2.813 0 5l-2-3c-3.572-4.99-3.572-4.99-9-7a103 103 0 0 0-5.25-.062l-2.703.027L851 662c4.24-3.634 7.604-3.705 13-3"/><path fill="#050403" d="M586 656h3q.04 3.563.063 7.125l.025 2.016c.02 4.066-.3 7.871-1.088 11.859h-1c-1.112-4.438-1.115-8.77-1.062-13.312l.013-2.245q.02-2.722.049-5.443"/><path fill="#f2f3f3" d="M994 654h8v13h14v1h-16v-12l-6-1z"/><path fill="#c8c9c8" d="m924 666 3 2v2l2 1-3 10h-2c-1.882-5.959-2.197-9.142 0-15"/><path fill="#e3e4e2" d="m748 679 1.574 1.242c5.74 4.435 10.164 6.745 17.426 7.758v1c-7.161.382-11.994.071-17.875-4.437C748 683 748 683 748 679"/><path fill="#d9d9d9" d="M869 667c2.877 2.877 2.866 4.984 3 9-1.649 3.297-2.74 5.407-6.125 7H864l-2-2 2.313-1.062c3.596-2.593 4.208-4.812 5.687-8.938l-3-1h2z"/><path fill="#e5e5e4" d="M917 653c2.978 1.49 3.085 3.521 4.125 6.625 1.515 4.702 2.32 8.47 1.875 13.375-2.717-2.717-3.51-5.87-4.687-9.437l-.721-2.065c-1.714-5.132-1.714-5.132-.592-8.498"/><path fill="#1d1d1d" d="m797 375 2 1-20 20-2-1a923 923 0 0 1 4.375-5l2.46-2.812L786 385h2v-2c1.715-1.691 1.715-1.691 3.938-3.562l2.214-1.88L796 376z"/><path fill="#d9d9d8" d="M808 653c5.605.361 10.143.92 15 4 2 3 2 3 1.625 5.188L824 664l-1.875-2.875c-3.45-4.24-7.935-4.54-13.125-5.125z"/><path fill="#d1d1cf" d="m524 680 3 3c-2.143 3.343-3.295 4.806-7.187 5.875-4.37.143-8.497-.239-12.813-.875v-1l2.266-.148 2.984-.227c.975-.07 1.95-.14 2.953-.21 2.728-.405 4.484-.943 6.797-2.415 1.268-2.034 1.268-2.034 2-4"/><path fill="#efeeed" d="M908 666c1.434 3.788.51 6.065-.937 9.75l-1.153 2.984L905 681c-1.979-3.636-2.525-6.884-3-11l3 1z"/><path fill="#d6d5d5" d="M747 665h1q.29 3.437.563 6.875l.316 3.867C749 679 749 679 748 681c-2-1-2-1-2.613-2.773-.403-2.32-.555-4.498-.574-6.852l-.043-2.352C745 667 745 667 747 665"/><path fill="#2f302f" d="M921 479h31v1c-1.663.2-1.663.2-3.36.402l-4.39.536-2.21.263c-4.148.498-4.148.498-8.22 1.395L932 483l-1-1c-1.679-.393-3.369-.74-5.062-1.062l-2.786-.536L921 480z"/><path fill="#c3c3c2" d="m766 668 15 1-2 3c-3.04.293-3.04.293-6.625.188l-3.602-.083L766 672v5h-1c-.125-6.75-.125-6.75 1-9"/><path fill="#e0e0df" d="M499 669h1l.55 1.863c.252.809.504 1.617.762 2.45l.739 2.425c.99 2.362 2.03 3.6 3.949 5.262l-4 1c-3.251-3.566-4.783-6.121-5-11z"/><path fill="#d6d7d5" d="m816 661 3 2c-.312 2.875-.312 2.875-1 6-3 2-3 2-6 2v-2l-4-1 8-1z"/><path fill="#cdcccb" d="m783 656-2 6h-2l-2 4c-4.875-1.75-4.875-1.75-6-4 3.058-.544 5.888-1 9-1l-2-4c3-1 3-1 5-1"/><path fill="#2a2c2c" d="M391 507h6l-1 2 2 1-1 2c-2.215.484-2.215.484-4.937.75l-2.715.297C387 513 387 513 385 511l6-3z"/><path fill="#faf9f9" d="M686 676h1v13h-7l1-3 4 1-.035-2.152-.028-2.785-.035-2.778C685 677 685 677 686 676"/><path fill="#d4d4d3" d="m910 676 5 1c-1.75 3.875-1.75 3.875-4 5-.656 2.527-.656 2.527-1 5l2 1-5-1z"/><path fill="#2c2d2d" d="m586 522 1 2 2 1c.73 2.314 1.401 4.648 2 7l-3-1 1 4-2-1v-4l-2-1c-.043-2-.04-4 0-6z"/><path fill="#1c1c1c" d="m1047 370 1 3h-8v-1l-14-1v-1c7.192-1.079 13.782-.794 21 0"/><path fill="#1d1e1e" d="M1036 326c0 3.94-1.361 5.095-3.812 8.125l-2.145 2.695C1028 339 1028 339 1025 340c.474-4.317 3.034-6.336 6.063-9.25l2.785-2.703z"/><path fill="#1e1e1e" d="M1026 271c0 3 0 3-2.625 5.918a350 350 0 0 1-3.375 3.27l-1.734 1.693c-1.416 1.38-2.84 2.75-4.266 4.119l-1-3z"/><path fill="#b6b7b7" d="M504 653q3.093-.079 6.188-.125l3.48-.07c3.25.19 5.419.801 8.332 2.195-3.358 2.056-5.675 2.177-9.562 1.813l-2.88-.231c-2.803-.638-3.788-1.37-5.558-3.582"/><path fill="#212121" d="M1040 423c-.588 3.024-1.227 6.018-2 9h-3v-4l-2-2c2.5-3 2.738-3 7-3"/><path fill="#f7f8f8" d="M804 674h6v3l-4-1-1 12h-5l4-1z"/><path fill="#d0d0d0" d="m724 653 10 1v2l2 1-3 4-2-2v-3h-6z"/><path fill="#f3f5f5" d="M804 661c1.746 2.62 2.387 4.038 3 7l5 1v2h-8z"/><path fill="#2e2e2e" d="M873 371v1l-3.035.184-4.028.253-3.972.247c-3.702.295-7.299.749-10.965 1.316 5.351-5.351 15.319-5.952 22-3"/><path fill="#c7c8c6" d="M761 687h12v2c-2.645 1.322-4.678 1.097-7.625 1.063l-3.04-.028L760 690z"/><path fill="#eae9e9" d="m876 664 3 1v12h-2z"/><path fill="#b2b3b2" d="m859.125 652.938 3.32.027L865 653l-2 3c-2.312.363-2.312.363-5 .313l-2.687-.012C853 656 853 656 851 654c2.765-1.382 5.046-1.095 8.125-1.062"/><path fill="#0f100f" d="m1032 427 4 1c-1.37 3.161-1.99 3.993-5 6l-2-1z"/><path fill="#212121" d="m632 318 2 1-10 10c0-3.545.594-4.06 2.875-6.625l1.617-1.852C630 319 630 319 632 318"/><path fill="#080909" d="M656 669h1l1 17-3 1z"/><path fill="#ebebea" d="M503 681c7.429-.143 7.429-.143 11 1v2c-7.508.37-7.508.37-10-1.5z"/><path fill="#d2d2d1" d="M890 655h2c1.837 3.782 2.158 5.946 1 10-2.49-2.49-3.087-4.63-4-8z"/><path fill="#0d0d0d" d="M432 494v3l-8 1c.375-1.937.375-1.937 1-4 2.667-1.333 4.167-.671 7 0"/><path fill="#282929" d="m994 296 2.438.5c2.539.766 2.539.766 4.562-.5-1.393 3.367-2.979 4.986-6 7l-2-6zm1 2v2l2-1z"/><path fill="#dededd" d="M810 676h2l4 7-2 2-5-8z"/><path fill="#d8d8d6" d="M781 684c-2.528 2.799-4.204 4.458-8 5v-3c4.281-3.24 4.281-3.24 8-2"/><path fill="#ebebea" d="m920 683 1.188 1.375c2.12 1.901 4.142 2.687 6.812 3.625v1h-8z"/><path fill="#d6d7d6" d="M671 667c3.367 1.393 4.986 2.979 7 6l-3 1-5-6z"/><path fill="#222322" d="m1040 312 2.25.563c2.7.429 4.196.288 6.75-.563l-2 3h-2l-1 2-4-1z"/><path fill="#e1e2e1" d="M927 671c1.312 3.937.243 6.125-1 10h-2c-.37-6.523-.37-6.523 1.5-8.937z"/><path fill="#d2d0ce" d="M900 659c1.903 2.855 2.462 4.42 3.125 7.688l.508 2.449L904 671h-3c-.545-4.085-1-7.873-1-12"/><path fill="#c4c6c5" d="M981 652c2.152 3.228 2.2 4.284 2 8l-3-1v-4h-2v-2z"/><path fill="#ecedeb" d="m815 683 1.75 1.375c2.03 1.466 3.985 2.574 6.25 3.625-2.875.625-2.875.625-6 1l-2-2z"/><path fill="#e1e1e0" d="m763 660 1 2-2.875.875c-3.177.893-3.177.893-5.125 3.125.25-2.375.25-2.375 1-5 3.307-2.347 3.307-2.347 6-1"/><path fill="#eaeceb" d="M980 656h-11v-2c6.5-1.375 6.5-1.375 11 2"/><path fill="#d6d6d5" d="m858 662-2.812 1.375c-3.227 1.567-3.227 1.567-6.188 3.625l1-5c3.053-.981 4.947-.981 8 0"/><path fill="#292a2a" d="m1030 428 2 1-3 4h2l-2 4c-1.125-1.75-1.125-1.75-2-4 .757-2.038 1.463-3.463 3-5"/><path fill="#e0dedf" d="m912 670 4 2c-1.252 2.504-3 4.064-5 6z"/><path fill="#ededed" d="M665 661c1.813.188 1.813.188 4 1 1.75 2.563 1.75 2.563 3 5-3 0-3 0-5.187-1.875C665 663 665 663 665 661"/><path fill="#cdcece" d="M909 659h1v8l-4 1v-4h2z"/><path fill="#131212" d="m518 658 5 1-1 4-4-2z"/><path fill="#f2f3f1" d="M680 686h7v3h-7z"/><path fill="#343435" d="m998 602 6 1c-1.562 1.563-1.562 1.563-4 3-3.75-.312-3.75-.312-7-1v-1h5z"/><path fill="#333434" d="M1039 596c-3.9 2.6-7.474 2.15-12 2v-1a367 367 0 0 1 4.313-1.062l2.425-.598C1036 595 1036 595 1039 596"/><path fill="#1e1f1f" d="m548 424 2 1-6 7-2-3z"/><path fill="#1c1d1d" d="m829 385 3 1-7 5v-3c1.813-1.75 1.813-1.75 4-3"/><path fill="#212222" d="m656 392 4 2-4 1z"/><path fill="#b7b9b8" d="m850 668 3 3h-3z"/><path fill="#292b29" d="M494 456h5l-4 2z"/><path fill="#a9aaa8" d="M1016 680h1v5h-1z"/><path fill="#4d4f50" d="m997 621 3 1-2 2z"/><path fill="#212122" d="m926 464 1 2-3 1v-2z"/><path fill="#242424" d="M1026 265v3l-2-2z"/><path fill="#a8aaa8" d="m494 685 2 1-2 2z"/><path fill="#b6b6b6" d="m675 667 2 1-1 2z"/><path fill="#a9a9a8" d="m943 660 2 1-1 2z"/><path fill="#343334" d="m947 608 4 1Z"/><path fill="#2d2e2d" d="M1057 586h2v2h-2z"/><path fill="#2b2c2a" d="M1134 552h2l-1 3z"/><path fill="#212221" d="m635 470 3 1h-3z"/><path fill="#1c1e1d" d="m765 467 2 3h-2z"/><path fill="#2a2b2a" d="m998 460 1 2-3-1z"/><path fill="#1f201e" d="m591 456 3 1-3 1z"/><path fill="#2c2c2c" d="M1194 449v3Z"/><path fill="#1f201f" d="m815 449 2 2-2 1z"/><path fill="#282a2a" d="M997 448v3Z"/><path fill="#262727" d="m532 432 3 1h-3z"/><path fill="#343434" d="m1045 422 3 1h-3z"/><path fill="#202120" d="m752 416 3 1h-3z"/><path fill="#202220" d="m975 376 2 1-2 2z"/><path fill="#272727" d="M1045 333v3Z"/><path fill="#212121" d="m988 304 2 2-2 1z"/><path fill="#777978" d="m948 1013 2 1-2 1z"/><path fill="#b3b3b2" d="m766 691 2 1-2 1z"/><path fill="#b7b5b5" d="M649 680h2l-1 2z"/><path fill="#babbb9" d="m851 675 2 2h-2z"/><path fill="#b7b6b4" d="M636 665h2l-1 2z"/><path fill="#b0afae" d="M889 664h2l-1 2z"/><path fill="#aeafae" d="m972 663 3 1Z"/><path fill="#b6b6b5" d="m768 663 3 1Z"/><path fill="#b1b1b2" d="m512 663 3 1Z"/><path fill="#b4b0b1" d="m781 662 2 1-2 1z"/><path fill="#9c9d9c" d="m492 656 2 2h-2z"/><path fill="#494a4a" d="m1044 614 2 1-2 1z"/><path fill="#303130" d="m1005 600 3 1Z"/><path fill="#333434" d="m368 600 3 1Z"/><path fill="#313030" d="M369 595h2l-1 2z"/><path fill="#2f302f" d="m1032 594 3 1Z"/><path fill="#2e2e2f" d="m1041 592 3 1Z"/><path fill="#2c2c2c" d="m1064 584 2 2h-2z"/><path fill="#343435" d="m493 579 2 1-2 1z"/><path fill="#242424" d="m473 563 2 1-2 1z"/><path fill="#222423" d="m476 560 2 2h-2z"/><path fill="#262829" d="m410 538 3 1Z"/><path fill="#282828" d="m1184 506 2 2h-2z"/><path fill="#252624" d="m495 505 1 2-2-1z"/><path fill="#28292a" d="m956 479 3 1Z"/><path fill="#262625" d="m478 479 2 1-2 1z"/><path fill="#2a2a2a" d="m968 475 3 1Z"/><path fill="#222323" d="m536 475 2 1-2 1z"/><path fill="#262526" d="m964 464 3 1Z"/><path fill="#21211f" d="m611 441 3 1Z"/><path fill="#1f2020" d="m832 434 2 1-2 1z"/><path fill="#1f201f" d="m954 405 1 2-2-1z"/><path fill="#242424" d="m568 401 2 1-2 1z"/><path fill="#2a2b2c" d="M1139 398h2l-1 2z"/><path fill="#252626" d="m975 398 1 2-2-1z"/><path fill="#212121" d="m964 398 1 2-2-1z"/><path fill="#222120" d="m657 395 3 1Z"/><path fill="#212322" d="m597 376 2 1-2 1z"/><path fill="#2c2d2d" d="m1092 369 1 2-2-1z"/><path fill="#252626" d="m1015 369 3 1Z"/><path fill="#222323" d="m1047 326 2 1-2 1z"/><path fill="#232424" d="m1044 283 2 1-2 1z"/><path fill="#212121" d="m1042 281 1 2-2-1z"/><path fill="#777878" d="m948 997 2 1Z"/><path fill="#7c7c7c" d="m1090 979 2 1Z"/><path fill="#7a7a7c" d="m1090 955 2 1Z"/><path fill="#79797a" d="m1090 931 2 1Z"/><path fill="#797879" d="m1090 843 2 1Z"/><path fill="#797b7b" d="m1042 829 2 1Z"/><path fill="#808181" d="m948 805 2 1Z"/><path fill="#9c9e9d" d="m948 717 2 1Z"/><path fill="#7f8080" d="m1090 715 2 1Z"/><path fill="#7f8081" d="m1090 699 2 1Z"/><path fill="#7e8080" d="m1090 691 2 1Z"/><path fill="#b0b0af" d="m862 691 2 1Z"/><path fill="#b1b0b1" d="m857 691 2 1Z"/><path fill="#adadac" d="m513 691 2 1Z"/><path fill="#b0b2af" d="m565 690 2 1Z"/><path fill="#adaead" d="m972 686 2 1Z"/><path fill="#b3b5b4" d="m674 685 2 1Z"/><path fill="#b2b5b5" d="m744 681 2 1Z"/><path fill="#bbbcba" d="m766 679 2 1Z"/><path fill="#b0b1b0" d="m1012 676 2 1Z"/><path fill="#bdbebc" d="m628 676 2 1Z"/><path fill="#7a7c7c" d="m1090 675 2 1Z"/><path fill="#78787a" d="m1090 667 2 1Z"/><path fill="#b9b9b8" d="m851 667 2 1Z"/><path fill="#c1c1bf" d="m624 663 2 1Z"/><path fill="#bdbdbe" d="m620 663 2 1Z"/><path fill="#b5b6b6" d="m668 660 2 1Z"/><path fill="#8e8f8f" d="m853 649 2 1Z"/><path fill="#6a6b6c" d="m1090 643 2 1Z"/><path fill="#565657" d="m1090 619 2 1Z"/><path fill="#4e4d4f" d="m754 619 2 1Z"/><path fill="#2e2f2f" d="m402 613 2 1Z"/><path fill="#4c4c4c" d="m1090 611 2 1Z"/><path fill="#31302f" d="m952 608 2 1Z"/><path fill="#333533" d="m944 608 2 1Z"/><path fill="#383837" d="m1068 601 2 1Z"/><path fill="#323333" d="m746 601 2 1Z"/><path fill="#373737" d="m1090 595 2 1Z"/><path fill="#313231" d="m369 584 2 1Z"/><path fill="#2e2d2d" d="m1090 571 2 1Z"/><path fill="#2f2f30" d="m640 568 2 1Z"/><path fill="#2f302f" d="m1090 563 2 1Z"/><path fill="#313132" d="m1090 555 2 1Z"/><path fill="#353535" d="m1090 531 2 1Z"/><path fill="#242523" d="m734 523 2 1Z"/><path fill="#252725" d="m478 513 2 1Z"/><path fill="#2f3030" d="m388 508 2 1Z"/><path fill="#212120" d="m520 499 2 1Z"/><path fill="#262727" d="m495 490 2 1Z"/><path fill="#2b2d2a" d="m442 484 2 1Z"/><path fill="#262625" d="m675 478 2 1Z"/><path fill="#242625" d="m642 478 2 1Z"/><path fill="#252524" d="m639 473 2 1Z"/><path fill="#282928" d="m979 470 2 1Z"/><path fill="#222323" d="m931 469 2 1Z"/><path fill="#1e1e1d" d="m731 468 2 1Z"/><path fill="#201f20" d="m728 465 2 1Z"/><path fill="#2b2c2c" d="m478 464 2 1Z"/><path fill="#1f201f" d="m548 457 2 1Z"/><path fill="#212122" d="m706 451 2 1Z"/><path fill="#282927" d="m506 450 2 1Z"/><path fill="#212421" d="m704 448 2 1Z"/><path fill="#38393a" d="m1090 443 2 1Z"/><path fill="#292a2b" d="m1008 442 2 1Z"/><path fill="#2f2f2f" d="m1026 439 2 1Z"/><path fill="#1e1e1d" d="m893 439 2 1Z"/><path fill="#2e3030" d="m1028 438 2 1Z"/><path fill="#2e302f" d="m1016 432 2 1Z"/><path fill="#282a29" d="m528 432 2 1Z"/><path fill="#1c1d1d" d="m894 425 2 1Z"/><path fill="#2e2d2f" d="m1032 424 2 1Z"/><path fill="#242525" d="m545 424 2 1Z"/><path fill="#2f3030" d="m1042 416 2 1Z"/><path fill="#222323" d="m948 413 2 1Z"/><path fill="#373736" d="m1090 411 2 1Z"/><path fill="#1f201f" d="m759 410 2 1Z"/><path fill="#222" d="m948 409 2 1Z"/><path fill="#232324" d="m716 407 2 1Z"/><path fill="#2f3030" d="m1152 405 2 1Z"/><path fill="#1c1d1d" d="m768 402 2 1Z"/><path fill="#1e1e1d" d="m912 401 2 1Z"/><path fill="#222223" d="m577 395 2 1Z"/><path fill="#2d2e2e" d="m1113 388 2 1Z"/><path fill="#302f30" d="m1090 387 2 1Z"/><path fill="#292a29" d="m1140 385 2 1Z"/><path fill="#232424" d="m584 385 2 1Z"/><path fill="#2d2e2d" d="m1077 380 2 1Z"/><path fill="#2c2d2c" d="m1125 379 2 1Z"/><path fill="#2c2c2c" d="m1091 372 2 1Z"/><path fill="#2d2e2c" d="m1088 370 2 1Z"/><path fill="#292a27" d="m727 369 2 1Z"/><path fill="#222323" d="m1013 358 2 1Z"/><path fill="#303231" d="m1090 355 2 1Z"/><path fill="#232220" d="m944 354 2 1Z"/><path fill="#212221" d="m948 353 2 1Z"/><path fill="#222423" d="m1042 317 2 1Z"/><path fill="#28292a" d="m641 314 2 1Z"/><path fill="#2c2b2a" d="m636 313 2 1Z"/><path fill="#222" d="m976 312 2 1Z"/><path fill="#1f2120" d="m990 304 2 1Z"/><path fill="#242525" d="m1087 279 2 1Z"/><path fill="#292727" d="m1090 275 2 1Z"/><path fill="#272928" d="m1042 253 2 1Z"/><path fill="#262525" d="m1089 245 2 1Z"/><path fill="#3f4040" d="m1090 211 2 1Z"/><path fill="#4d4d4d" d="m1090 179 2 1Z"/><path fill="#6c6c6b" d="m1090 59 2 1Z"/></svg>